<svg width="250" height="250" viewBox="0 0 250 250" fill="none" xmlns="http://www.w3.org/2000/svg">
<rect width="250" height="250" fill="white"/>
<path d="M16.4 134L15.95 124.65L32.7 107H41.7L26.6 123.25L22.1 128.05L16.4 134ZM9.15 142V107H17.2V142H9.15ZM33.1 142L20.65 126.75L25.95 121L42.55 142H33.1ZM61.8922 142.6C59.1255 142.6 56.5589 142.15 54.1922 141.25C51.8589 140.35 49.8255 139.083 48.0922 137.45C46.3922 135.817 45.0589 133.9 44.0922 131.7C43.1589 129.5 42.6922 127.1 42.6922 124.5C42.6922 121.9 43.1589 119.5 44.0922 117.3C45.0589 115.1 46.4089 113.183 48.1422 111.55C49.8755 109.917 51.9089 108.65 54.2422 107.75C56.5755 106.85 59.1089 106.4 61.8422 106.4C64.6089 106.4 67.1422 106.85 69.4422 107.75C71.7755 108.65 73.7922 109.917 75.4922 111.55C77.2255 113.183 78.5755 115.1 79.5422 117.3C80.5089 119.467 80.9922 121.867 80.9922 124.5C80.9922 127.1 80.5089 129.517 79.5422 131.75C78.5755 133.95 77.2255 135.867 75.4922 137.5C73.7922 139.1 71.7755 140.35 69.4422 141.25C67.1422 142.15 64.6255 142.6 61.8922 142.6ZM61.8422 135.7C63.4089 135.7 64.8422 135.433 66.1422 134.9C67.4755 134.367 68.6422 133.6 69.6422 132.6C70.6422 131.6 71.4089 130.417 71.9422 129.05C72.5089 127.683 72.7922 126.167 72.7922 124.5C72.7922 122.833 72.5089 121.317 71.9422 119.95C71.4089 118.583 70.6422 117.4 69.6422 116.4C68.6755 115.4 67.5255 114.633 66.1922 114.1C64.8589 113.567 63.4089 113.3 61.8422 113.3C60.2755 113.3 58.8255 113.567 57.4922 114.1C56.1922 114.633 55.0422 115.4 54.0422 116.4C53.0422 117.4 52.2589 118.583 51.6922 119.95C51.1589 121.317 50.8922 122.833 50.8922 124.5C50.8922 126.133 51.1589 127.65 51.6922 129.05C52.2589 130.417 53.0255 131.6 53.9922 132.6C54.9922 133.6 56.1589 134.367 57.4922 134.9C58.8255 135.433 60.2755 135.7 61.8422 135.7ZM96.4566 142L81.3566 107H90.1066L103.307 138H98.1566L111.557 107H119.607L104.457 142H96.4566ZM165.971 142.6C161.005 142.6 157.121 141.217 154.321 138.45C151.521 135.683 150.121 131.733 150.121 126.6V107H158.221V126.3C158.221 129.633 158.905 132.033 160.271 133.5C161.638 134.967 163.555 135.7 166.021 135.7C168.488 135.7 170.405 134.967 171.771 133.5C173.138 132.033 173.821 129.633 173.821 126.3V107H181.821V126.6C181.821 131.733 180.421 135.683 177.621 138.45C174.821 141.217 170.938 142.6 165.971 142.6ZM189.826 142V107H197.926V135.4H215.476V142H189.826ZM223.98 142V113.6H212.78V107H243.28V113.6H232.08V142H223.98Z" fill="black"/>
<path d="M134.35 107L149.45 142H140.7L127.5 111H132.65L119.25 142H111.2L126.35 107H134.35Z" fill="black"/>
</svg>
