<svg width="169" height="175" viewBox="0 0 169 175" fill="none" xmlns="http://www.w3.org/2000/svg">
<rect width="168.043" height="174.661" rx="22.793" fill="url(#paint0_linear_15_16)"/>
<path d="M68.4882 23.6654C70.1434 24.3675 72.0986 26.008 73.154 27.5178C76.4974 32.3028 77.5948 39.5293 78.8626 45.2674C80.5974 53.1142 82.8036 61.6845 82.1481 70.0152C81.8334 74.0118 80.0737 78.08 76.1202 79.5285C64.4984 83.7853 59.1328 72.8701 52.2881 65.8197C51.4588 64.9654 49.2889 62.8342 48.2756 62.4491C46.7646 61.8754 47.4304 63.7771 47.6848 64.5167C48.7482 67.6022 50.8056 70.1106 52.0405 72.9087C53.6968 76.6622 52.6891 80.8997 48.763 82.5299C43.3224 84.7884 35.904 80.6032 32.4027 76.3907C27.9925 71.0853 24.6469 61.1188 23.4006 54.2661C21.9487 46.2853 22.5497 36.0177 31.3905 32.6607C40.1517 29.3321 47.7212 41.7502 52.9879 46.8045C53.8479 47.6304 55.6792 49.8264 56.4347 47.7088C57.0913 45.8696 56.5801 41.9036 56.4915 39.8042C56.2189 33.323 55.3736 22.0954 64.9483 22.827C65.9537 22.9043 67.5566 23.2701 68.4871 23.6654H68.4882Z" fill="#FBFBFB"/>
<path d="M128.013 31.1668C133.425 34.2307 136.81 39.761 138.391 45.6105C139.673 50.3604 140.104 55.96 139.445 60.9654C137.758 73.7778 129.013 84.1408 115.397 84.7452C106.482 85.1406 96.9566 81.9289 92.5658 73.7073C85.9381 61.2983 95.8161 49.1243 103.634 40.2325C110.094 32.8856 117.453 25.1877 128.013 31.1668ZM115.859 48.0894C112.891 46.0672 109.961 49.3004 109.011 51.8906C107.355 56.4076 108.23 64.0725 114.48 63.6078C118.404 63.3159 119.077 58.2752 118.861 55.1409C118.719 53.0926 117.629 49.2936 115.859 48.0883V48.0894Z" fill="#FBFBFB"/>
<path d="M70.543 93.2873C73.0536 94.3166 76.3823 98.4734 77.7251 100.725C82.9464 109.479 84.3551 119.728 83.9938 129.999C83.7621 136.575 82.8078 145.449 77.1446 149.626C68.9309 155.684 59.5437 148.565 61.6397 139.001C61.8953 137.833 62.4497 136.692 62.8712 135.596C63.6108 133.672 63.5665 130.653 63.0837 128.538C63.0746 128.498 62.9212 128.088 62.8519 127.844C62.3941 126.212 61.2944 123.993 59.2586 124.977C58.5667 125.313 57.734 126.394 56.7695 126.861C53.3034 128.539 48.5933 126.051 46.8711 122.806C46.3792 121.878 45.5907 119.26 44.7228 118.82C43.6719 118.288 43.2868 119.324 43.0074 120.144C42.2098 122.482 42.2701 126.566 43.0108 129.051C43.4675 130.583 44.4501 132.046 45.0398 133.502C47.2664 139.002 49.6714 148.368 41.8634 150.581C37.3294 151.866 33.9394 149.609 31.1549 146.386C20.7578 134.35 20.4567 116.676 28.0353 102.785C30.7607 97.7884 34.1348 94.4734 40.3126 94.6017C44.2309 94.6835 46.5836 96.8091 48.3945 100.033C49.6101 102.196 50.7609 104.605 52.4616 106.537C53.6817 107.923 55.4108 109.318 57.1705 107.815C59.2665 106.026 60.3912 100.852 61.8022 98.27C63.5517 95.0687 66.418 91.598 70.5418 93.2873H70.543Z" fill="#FBFBFB"/>
<path d="M138.473 98.4008C142.159 101.479 144.374 106.692 145.007 111.351C146.694 123.776 139.47 143.507 127.633 149.348C121.668 152.292 113.645 151.171 107.476 149.336C97.5789 146.39 91.7726 137.642 91.1489 127.492C90.6036 118.617 95.4591 107.322 100.709 100.355C104.509 95.3118 112.593 97.3601 115.048 102.57C116.57 105.801 115.166 107.643 113.802 110.382C110.681 116.646 106.545 124.557 112.559 130.62C116.9 134.996 120.713 131.909 123.683 128.049C126.665 124.174 127.587 121.576 126.921 116.486C126.159 110.662 121.617 98.5905 130.085 96.3377C133.165 95.5186 136.093 96.4127 138.473 98.4008Z" fill="#FBFBFB"/>
<defs>
<linearGradient id="paint0_linear_15_16" x1="0" y1="87.3306" x2="168.043" y2="87.3306" gradientUnits="userSpaceOnUse">
<stop stop-color="#1450C6"/>
<stop offset="1" stop-color="#256EFF"/>
</linearGradient>
</defs>
</svg>
